<svg width="61" height="60" viewBox="0 0 61 60" fill="none" xmlns="http://www.w3.org/2000/svg">
<path d="M25.637 46.4164C26.5217 41.1655 30.5533 37.8348 36.6629 37.8348H52.5397C58.4653 37.8348 59.7241 33.9529 59.7241 33.9529C58.8394 39.2038 56.4288 42.5345 50.3191 42.5345H34.0326C27.2936 42.5345 25.637 46.4164 25.637 46.4164Z" fill="#DF2325"/>
<path d="M52.2662 43.5361C50.9184 45.5571 49.3568 45.7349 46.394 45.7349C43.4312 45.7349 39.9519 45.8001 35.1366 45.7349C29.9532 45.6638 25.9513 47.9988 25.6248 53.0778C26.9726 51.0569 28.7241 50.6894 31.6869 50.6894C34.6497 50.6894 36.431 50.6243 41.2462 50.6894C46.4237 50.7665 50.4731 48.4848 52.2662 43.5361Z" fill="#EE4523"/>
<path d="M25.6365 57.2916C25.6365 55.2707 28.4093 54.1861 31.7224 54.1861C35.0355 54.1861 41.448 54.6247 44.1733 52.7045C43.4311 54.921 36.6624 60 29.8996 60C26.8358 60 25.6365 58.5243 25.6365 57.2916Z" fill="#FE5F3E"/>
<path d="M13.6087 25.5911C18.8693 26.4741 22.2062 30.4982 22.2062 36.5966V52.4441C22.2062 58.3588 26.0952 59.6152 26.0952 59.6152C20.8346 58.7321 17.4978 56.326 17.4978 50.2276V33.9712C17.4978 27.2386 13.6087 25.5911 13.6087 25.5911Z" fill="#172C4F"/>
<path d="M16.4926 52.1651C14.4679 50.8198 14.2898 49.2612 14.2898 46.3038C14.2898 43.3465 14.2245 39.8736 14.2898 35.0672C14.3611 29.8933 12.0217 25.8988 6.93329 25.5729C8.95797 26.9182 9.32609 28.6665 9.32609 31.6239C9.32609 34.5812 9.3914 36.3591 9.32609 41.1655C9.25484 46.3394 11.5348 50.3753 16.4926 52.1651Z" fill="#264A74"/>
<path d="M2.71936 25.5926C4.74404 25.5926 5.8306 28.3603 5.8306 31.6673C5.8306 34.9683 5.39123 41.3749 7.31497 44.0952C5.08841 43.3544 0 36.5981 0 29.8419C0 26.7838 1.48437 25.5926 2.71936 25.5926Z" fill="#345A87"/>
<path d="M34.4801 13.5836C33.5954 18.8345 29.5638 22.1652 23.4542 22.1652H7.57143C1.64583 22.1652 0.387085 26.0471 0.387085 26.0471C1.27177 20.7962 3.68238 17.4655 9.79204 17.4655H26.0785C32.8235 17.4655 34.4801 13.5836 34.4801 13.5836Z" fill="#DF2325"/>
<path d="M7.85016 16.4639C9.19797 14.4429 10.7595 14.2651 13.7223 14.2651C16.6851 14.2651 20.1645 14.1999 24.9798 14.2651C30.1632 14.3363 34.165 12.0012 34.4916 6.92218C33.1438 8.94312 31.3922 9.31057 28.4294 9.31057C25.4666 9.31057 23.6854 9.37576 18.8701 9.31057C13.6926 9.23352 9.64328 11.5152 7.85016 16.4639Z" fill="#EE4523"/>
<path d="M34.4811 2.70841C34.4811 4.72935 31.7083 5.81391 28.3952 5.81391C25.082 5.81391 18.6696 5.37535 15.9443 7.29554C16.6865 5.07902 23.4552 0 30.218 0C33.2817 0 34.4811 1.4757 34.4811 2.70841Z" fill="#FE5F3E"/>
<path d="M46.5082 34.4093C41.2476 33.5263 37.9107 29.5022 37.9107 23.4038V7.55628C37.9107 1.64162 34.0217 0.385193 34.0217 0.385193C39.2823 1.26824 42.6191 3.67441 42.6191 9.77279V26.0292C42.6191 32.7618 46.5082 34.4093 46.5082 34.4093Z" fill="#172C4F"/>
<path d="M43.6226 7.83496C45.6473 9.18028 45.8254 10.739 45.8254 13.6963C45.8254 16.6536 45.8907 20.1265 45.8254 24.933C45.7542 30.1068 48.0935 34.1013 53.182 34.4272C51.1573 33.0819 50.7892 31.3336 50.7892 28.3763C50.7892 25.4189 50.7238 23.641 50.7892 18.8346C50.8604 13.6607 48.5804 9.62477 43.6226 7.83496Z" fill="#264A74"/>
<path d="M57.3968 34.4094C55.3721 34.4094 54.2856 31.6417 54.2856 28.3347C54.2856 25.0336 54.725 18.6271 52.8012 15.9068C55.0218 16.6476 60.1102 23.4038 60.1102 30.1541C60.1162 33.2181 58.6318 34.4094 57.3968 34.4094Z" fill="#345A87"/>
</svg>
